<?xml version="1.0" standalone="no"?>
<!DOCTYPE svg PUBLIC "-//W3C//DTD SVG 20010904//EN"
 "http://www.w3.org/TR/2001/REC-SVG-20010904/DTD/svg10.dtd">
<svg version="1.0" xmlns="http://www.w3.org/2000/svg"
 width="900.000000pt" height="900.000000pt" viewBox="0 0 900.000000 900.000000"
 preserveAspectRatio="xMidYMid meet">
<metadata>
Created by potrace 1.11, written by Peter Selinger 2001-2013
</metadata>
<g transform="translate(0.000000,900.000000) scale(0.100000,-0.100000)"
fill="#000000" stroke="none">
<path d="M0 4500 l0 -4500 4500 0 4500 0 0 4500 0 4500 -4500 0 -4500 0 0
-4500z m6205 1050 l0 -1725 -1725 0 -1725 0 -3 1715 c-1 943 0 1721 3 1728 3
10 354 12 1727 10 l1723 -3 0 -1725z m-4640 -3015 l0 -470 -52 -3 c-43 -2 -53
0 -53 12 0 20 1 20 -46 0 -30 -13 -58 -15 -124 -11 -94 6 -144 23 -176 59 -43
48 -49 83 -49 278 0 177 1 187 25 235 39 78 82 97 237 103 l123 5 0 134 0 134
58 -3 57 -3 0 -470z m2165 66 c0 -359 2 -412 16 -425 12 -12 38 -16 115 -16
l99 0 0 -50 0 -50 -120 0 c-125 0 -171 10 -200 45 -13 15 -16 81 -20 409 l-5
391 -97 3 -98 3 0 49 0 50 155 0 155 0 0 -409z m-1517 128 c52 -14 101 -60
115 -107 7 -22 12 -92 12 -156 l0 -116 -180 0 -180 0 0 -44 c0 -95 20 -129 80
-140 14 -2 73 -5 133 -5 l107 -1 0 -51 0 -51 -142 4 c-129 3 -148 5 -192 28
-82 41 -90 68 -94 292 -4 206 4 252 46 299 46 51 197 76 295 48z m547 -3 c0
-11 7 -11 43 1 56 20 191 12 244 -15 86 -44 98 -84 98 -317 0 -172 -1 -182
-25 -230 -38 -75 -91 -99 -237 -103 l-112 -4 -3 -112 -3 -111 -57 -3 -58 -3 0
456 0 455 55 0 c40 0 55 -4 55 -14z m1874 -16 c28 -13 50 -34 67 -63 23 -41
24 -48 24 -247 0 -199 -1 -206 -24 -247 -38 -67 -91 -88 -221 -88 -92 0 -111
3 -155 25 -38 19 -55 35 -72 70 -22 41 -23 57 -23 240 0 183 1 199 23 240 37
75 111 102 255 95 57 -3 98 -11 126 -25z m563 -249 c45 -150 84 -275 86 -277
1 -2 31 108 66 244 35 136 68 262 73 280 9 31 10 32 63 32 45 0 55 -3 55 -17
0 -15 -60 -233 -181 -658 -56 -196 -80 -224 -198 -233 l-71 -5 0 50 0 49 52
10 c43 7 55 14 69 39 24 44 32 85 16 85 -8 0 -52 120 -121 328 -60 180 -111
333 -114 340 -3 10 10 12 59 10 l63 -3 83 -274z m1753 255 c99 -51 108 -81
109 -369 l1 -177 30 -6 c28 -6 30 -9 30 -55 l0 -49 -37 0 c-21 0 -54 8 -73 18
-33 16 -37 16 -70 -1 -29 -15 -53 -18 -140 -15 -178 6 -219 45 -220 204 0 103
25 157 90 191 38 20 57 23 157 23 l113 0 0 49 c0 38 -6 56 -24 78 -24 28 -26
28 -155 32 l-131 3 0 50 0 51 143 -5 c110 -3 150 -8 177 -22z m490 8 c0 -14 2
-15 17 -3 27 23 137 17 172 -9 l28 -21 49 25 c83 43 184 20 222 -50 15 -27 17
-71 20 -318 l3 -288 -55 0 -55 0 -3 280 c-2 174 -7 283 -13 289 -6 6 -25 13
-42 17 -26 5 -37 1 -57 -19 l-26 -26 0 -271 0 -270 -55 0 -55 0 0 259 c0 158
-4 270 -11 289 -12 35 -50 49 -92 33 -41 -16 -47 -60 -47 -334 l0 -248 -52 3
-53 3 -3 324 c-1 179 0 331 2 338 4 8 23 13 56 13 39 0 50 -3 50 -16z m-1310
-594 l0 -71 -67 3 -68 3 -3 54 c-5 79 -2 81 73 81 l65 0 0 -70z"/>
<path d="M2830 5550 l0 -1650 1650 0 1650 0 0 1650 0 1650 -1650 0 -1650 0 0
-1650z m3225 0 l0 -1575 -1575 0 -1575 0 -3 1565 c-1 861 0 1571 3 1578 3 10
324 12 1577 10 l1573 -3 0 -1575z"/>
<path d="M2980 5550 l0 -1500 1500 0 1500 0 0 1500 0 1500 -1500 0 -1500 0 0
-1500z m785 565 l0 -330 -32 -3 -33 -3 0 336 0 336 33 -3 32 -3 0 -330z m365
0 l0 -335 -30 0 -30 0 0 335 0 335 30 0 30 0 0 -335z m1120 180 l24 -26 -730
-730 -731 -731 -27 28 -26 29 727 727 c401 401 731 728 734 728 3 0 16 -11 29
-25z m-1610 -180 l0 -155 -30 0 -30 0 0 148 c0 82 3 152 7 155 3 4 17 7 30 7
l23 0 0 -155z m370 -2 l0 -153 -30 0 -30 0 0 154 0 154 30 -2 30 -1 0 -152z
m240 0 l0 -153 -30 0 -30 0 0 149 c0 154 1 160 43 158 15 -1 17 -16 17 -154z
m-730 -3 l0 -60 -30 0 -30 0 0 60 0 60 30 0 30 0 0 -60z m370 0 l0 -60 -30 0
-30 0 0 60 0 60 30 0 30 0 0 -60z m486 15 c2 -64 -4 -77 -34 -73 -25 3 -27 6
-30 61 l-3 58 33 -3 c31 -3 33 -5 34 -43z m944 -1119 l0 -315 -136 2 -136 2
-28 32 c-24 26 -29 44 -35 109 -9 92 -2 199 16 238 19 41 63 59 157 64 l82 5
0 88 0 89 40 0 40 0 0 -314z"/>
<path d="M5080 5050 c-18 -18 -20 -33 -20 -139 0 -145 3 -151 94 -151 35 0 67
5 74 12 8 8 12 57 12 155 l0 143 -70 0 c-57 0 -74 -4 -90 -20z"/>
<path d="M1243 2629 c-58 -17 -63 -34 -63 -227 0 -105 4 -181 11 -194 32 -59
218 -65 249 -8 6 11 10 111 10 229 l0 211 -87 -1 c-49 0 -102 -5 -120 -10z"/>
<path d="M2028 2628 c-32 -11 -51 -65 -46 -131 l3 -42 123 -3 122 -3 0 68 c-1
74 -11 96 -54 113 -34 12 -112 12 -148 -2z"/>
<path d="M2827 2633 c-15 -2 -34 -15 -43 -28 -17 -26 -17 -18 -15 -267 l1
-178 78 0 c42 0 94 5 114 10 64 18 68 32 68 232 0 169 -1 178 -22 203 -19 22
-33 26 -88 29 -36 2 -77 2 -93 -1z"/>
<path d="M4400 2627 c-56 -19 -61 -40 -58 -240 3 -173 4 -179 26 -197 43 -35
173 -38 218 -5 17 12 20 32 24 187 6 206 0 238 -50 255 -19 7 -55 12 -80 12
-25 0 -61 -5 -80 -12z"/>
<path d="M6732 2373 c-23 -9 -42 -61 -42 -113 0 -41 5 -56 25 -75 22 -22 32
-25 105 -25 111 0 120 10 120 130 l0 90 -97 -1 c-54 0 -104 -3 -111 -6z"/>
</g>
</svg>
